<svg width="20" height="19" viewBox="0 0 20 19" fill="none" xmlns="http://www.w3.org/2000/svg">
<path d="M0 0.649351C0 0.290724 0.298477 0 0.666666 0H2.66667C2.97258 0 3.23923 0.20279 3.31343 0.49186L3.85385 2.5974H19.3333C19.5386 2.5974 19.7325 2.68953 19.8588 2.84713C19.9851 3.00474 20.0299 3.21026 19.9801 3.40424L17.9801 11.1965C17.9059 11.4855 17.6392 11.6883 17.3333 11.6883H5.33333C5.02742 11.6883 4.76076 11.4855 4.68657 11.1965L2.14615 1.2987H0.666666C0.298477 1.2987 0 1.00798 0 0.649351ZM4.18718 3.8961L5.85385 10.3896H16.8128L18.4795 3.8961H4.18718ZM6.66666 14.2857C5.93028 14.2857 5.33333 14.8672 5.33333 15.5844C5.33333 16.3017 5.93028 16.8831 6.66666 16.8831C7.40304 16.8831 8 16.3017 8 15.5844C8 14.8672 7.40304 14.2857 6.66666 14.2857ZM4 15.5844C4 14.1499 5.19391 12.987 6.66666 12.987C8.13942 12.987 9.33333 14.1499 9.33333 15.5844C9.33333 17.0189 8.13942 18.1818 6.66666 18.1818C5.19391 18.1818 4 17.0189 4 15.5844ZM16 14.2857C15.2636 14.2857 14.6667 14.8672 14.6667 15.5844C14.6667 16.3017 15.2636 16.8831 16 16.8831C16.7364 16.8831 17.3333 16.3017 17.3333 15.5844C17.3333 14.8672 16.7364 14.2857 16 14.2857ZM13.3333 15.5844C13.3333 14.1499 14.5272 12.987 16 12.987C17.4728 12.987 18.6667 14.1499 18.6667 15.5844C18.6667 17.0189 17.4728 18.1818 16 18.1818C14.5272 18.1818 13.3333 17.0189 13.3333 15.5844Z" fill="#838A95"/>
</svg>
