<svg width="14" height="14" viewBox="0 0 14 14" fill="none" xmlns="http://www.w3.org/2000/svg">
<path d="M7 0C3.14565 0 0 3.14587 0 7C0 10.8543 3.14587 14 7 14C10.8543 14 14 10.8541 14 7C14 3.14565 10.8541 0 7 0ZM4.91198 1.18371C4.43171 1.79432 4.0827 2.54926 3.8412 3.28125H2.06776C2.78589 2.33116 3.77166 1.59433 4.91198 1.18371ZM1.54361 4.09883H3.6091C3.42355 4.8764 3.31401 5.7205 3.2877 6.58984H0.834258C0.893156 5.69551 1.14305 4.84988 1.54361 4.09883ZM1.54361 9.89844C1.14305 9.14739 0.893156 8.30449 0.834258 7.41016H3.2877C3.31401 8.2795 3.42355 9.12086 3.6091 9.89844H1.54361ZM2.06776 10.7188H3.84117C4.08261 11.4506 4.43163 12.2056 4.91198 12.8163C3.77166 12.4057 2.78589 11.6688 2.06776 10.7188ZM6.58984 13.1101C5.67407 12.8022 5.04268 11.6266 4.7092 10.7188H6.58984V13.1101ZM6.58984 9.89844H4.45389C4.25455 9.13186 4.13643 8.28833 4.10834 7.41016H6.58984V9.89844ZM6.58984 6.58984H4.10834C4.13645 5.71167 4.25458 4.86814 4.45389 4.10156H6.58984V6.58984ZM6.58984 3.28125H4.7092C5.04265 2.37346 5.67407 1.19777 6.58984 0.88993V3.28125ZM12.4564 4.10156C12.857 4.85261 13.1068 5.69551 13.1657 6.58984H10.7123C10.686 5.7205 10.5765 4.87914 10.3909 4.10156H12.4564ZM11.9322 3.28125H10.1588C9.91739 2.54945 9.56837 1.79441 9.08802 1.18371C10.2283 1.59433 11.2141 2.33116 11.9322 3.28125ZM7.41016 0.88993C8.32593 1.19777 8.95732 2.37344 9.2908 3.28125H7.41016V0.88993ZM7.41016 4.10156H9.54611C9.74545 4.86814 9.86357 5.71167 9.89166 6.58984H7.41016V4.10156ZM7.41016 7.40742H9.89166C9.86355 8.28559 9.74542 9.13186 9.54611 9.89844H7.41016V7.40742ZM7.41016 13.1101V10.716H9.2908C8.95735 11.6238 8.32593 12.8022 7.41016 13.1101ZM9.08802 12.8163C9.56829 12.2057 9.9173 11.448 10.1588 10.716H11.9322C11.2141 11.6661 10.2283 12.4057 9.08802 12.8163ZM12.4564 9.89844H10.3909C10.5765 9.12086 10.686 8.27676 10.7123 7.40742H13.1657C13.1068 8.30175 12.8569 9.14739 12.4564 9.89844Z" fill="#838A95"/>
</svg>
