<svg width="12" height="12" viewBox="0 0 12 12" fill="none" xmlns="http://www.w3.org/2000/svg">
<path d="M11.9695 3.50519C11.9414 2.87171 11.8383 2.4362 11.6905 2.05883C11.5381 1.65825 11.3037 1.29962 10.9965 1.00148C10.6963 0.698709 10.3329 0.463441 9.93432 0.314419C9.55221 0.167672 9.11607 0.0652311 8.47834 0.0373009C7.83584 0.00700528 7.63188 0 6.00234 0C4.3728 0 4.16883 0.00700528 3.52872 0.0349355C2.89099 0.0628656 2.45255 0.165398 2.07274 0.312054C1.66938 0.463441 1.30834 0.696344 1.0082 1.00148C0.703399 1.29962 0.466643 1.66062 0.316529 2.05655C0.168797 2.4362 0.0656689 2.86935 0.0375512 3.50283C0.0070523 4.14104 0 4.34364 0 5.96232C0 7.581 0.0070523 7.7836 0.0351699 8.41945C0.0632876 9.05292 0.166508 9.48843 0.31424 9.86581C0.466643 10.2664 0.703399 10.625 1.0082 10.9232C1.30834 11.2259 1.67176 11.4612 2.07036 11.6102C2.45255 11.757 2.88861 11.8594 3.52643 11.8873C4.16645 11.9154 4.37051 11.9223 6.00005 11.9223C7.62959 11.9223 7.83355 11.9154 8.47366 11.8873C9.11139 11.8594 9.54983 11.757 9.92964 11.6102C10.7363 11.3004 11.374 10.667 11.6859 9.86581C11.8335 9.48616 11.9367 9.05292 11.9648 8.41945C11.9929 7.7836 12 7.581 12 5.96232C12 4.34364 11.9976 4.14104 11.9695 3.50519ZM10.8887 8.37287C10.8628 8.95512 10.7644 9.26954 10.6823 9.47916C10.4806 9.99855 10.0657 10.4108 9.54278 10.6111C9.33176 10.6926 9.01294 10.7904 8.42906 10.816C7.796 10.844 7.60614 10.8509 6.00472 10.8509C4.40329 10.8509 4.21105 10.844 3.58028 10.816C2.99412 10.7904 2.67759 10.6926 2.46657 10.6111C2.20636 10.5156 1.96952 10.3642 1.77727 10.1662C1.57798 9.97289 1.42557 9.73999 1.32941 9.48152C1.24734 9.27191 1.14888 8.95512 1.12315 8.37523C1.09494 7.74639 1.08798 7.5577 1.08798 5.96696C1.08798 4.37621 1.09494 4.18525 1.12315 3.55878C1.14888 2.97652 1.24734 2.6621 1.32941 2.45249C1.42557 2.19393 1.57798 1.95875 1.77965 1.7677C1.97419 1.56973 2.20865 1.41834 2.46895 1.32291C2.67997 1.24139 2.99888 1.14359 3.58266 1.11793C4.21572 1.09 4.40568 1.083 6.00701 1.083C7.61081 1.083 7.80067 1.09 8.43144 1.11793C9.01761 1.14359 9.33414 1.24139 9.54516 1.32291C9.80536 1.41834 10.0422 1.56973 10.2345 1.7677C10.4337 1.96103 10.5862 2.19393 10.6823 2.45249C10.7644 2.6621 10.8628 2.97879 10.8887 3.55878C10.9168 4.18762 10.9238 4.37621 10.9238 5.96696C10.9238 7.5577 10.9168 7.74403 10.8887 8.37287Z" fill="#838A95"/>
<path d="M6.0012 2.89844C4.29903 2.89844 2.91797 4.2702 2.91797 5.96111C2.91797 7.65203 4.29903 9.02379 6.0012 9.02379C7.70346 9.02379 9.08443 7.65203 9.08443 5.96111C9.08443 4.2702 7.70346 2.89844 6.0012 2.89844ZM6.0012 7.9478C4.89692 7.9478 4.00118 7.05812 4.00118 5.96111C4.00118 4.8641 4.89692 3.97443 6.0012 3.97443C7.10557 3.97443 8.00121 4.8641 8.00121 5.96111C8.00121 7.05812 7.10557 7.9478 6.0012 7.9478Z" fill="#838A95"/>
<path d="M9.92698 2.77749C9.92698 3.17234 9.60468 3.49249 9.2071 3.49249C8.8096 3.49249 8.4873 3.17234 8.4873 2.77749C8.4873 2.38256 8.8096 2.0625 9.2071 2.0625C9.60468 2.0625 9.92698 2.38256 9.92698 2.77749Z" fill="#838A95"/>
</svg>
