<svg width="14" height="14" viewBox="0 0 14 14" fill="none" xmlns="http://www.w3.org/2000/svg">
<g opacity="0.8">
<path d="M13.5962 13.5072V13.5067H13.5996V8.55238C13.5996 6.12872 13.0744 4.26172 10.2219 4.26172C8.85066 4.26172 7.93044 5.00919 7.55476 5.71783H7.5151V4.48799H4.81055V13.5067H7.62672V9.04094C7.62672 7.86513 7.85111 6.72816 9.317 6.72816C10.7613 6.72816 10.7829 8.07001 10.7829 9.11637V13.5072H13.5962Z" fill="#838A95"/>
<path d="M0.224609 4.48828H3.04419V13.5069H0.224609V4.48828Z" fill="#838A95"/>
<path d="M1.63304 0C0.731526 0 0 0.726649 0 1.62216C0 2.51766 0.731526 3.25951 1.63304 3.25951C2.53456 3.25951 3.26608 2.51766 3.26608 1.62216C3.26552 0.726649 2.53399 0 1.63304 0V0Z" fill="#838A95"/>
</g>
</svg>
