<svg width="14" height="13" viewBox="0 0 14 13" fill="none" xmlns="http://www.w3.org/2000/svg">
<path d="M13 0.5H1C0.734877 0.500304 0.4807 0.605759 0.293229 0.793229C0.105759 0.9807 0.000304367 1.23488 0 1.5V9.5C0.000304367 9.76512 0.105759 10.0193 0.293229 10.2068C0.4807 10.3942 0.734877 10.4997 1 10.5H4.76L6.60965 12.8123C6.65649 12.8709 6.71592 12.9182 6.78354 12.9507C6.85116 12.9833 6.92524 13.0001 7.00027 13.0001C7.07531 13.0001 7.14939 12.9833 7.21701 12.9507C7.28463 12.9182 7.34406 12.8709 7.3909 12.8123L9.24025 10.5H13C13.2651 10.4997 13.5193 10.3942 13.7068 10.2068C13.8942 10.0193 13.9997 9.76512 14 9.5V1.5C13.9997 1.23488 13.8942 0.9807 13.7068 0.793229C13.5193 0.605759 13.2651 0.500304 13 0.5ZM13 9.5H9C8.92499 9.50005 8.85095 9.51694 8.78334 9.54944C8.71573 9.58193 8.65629 9.6292 8.6094 9.68775L7 11.6997L5.39065 9.68775C5.34375 9.62921 5.28429 9.58194 5.21668 9.54945C5.14907 9.51695 5.07502 9.50005 5 9.5H1V1.5H13V9.5Z" fill="#838A95"/>
<path d="M3.75 4.5H10.25C10.3826 4.5 10.5098 4.44732 10.6036 4.35355C10.6973 4.25979 10.75 4.13261 10.75 4C10.75 3.86739 10.6973 3.74021 10.6036 3.64645C10.5098 3.55268 10.3826 3.5 10.25 3.5H3.75C3.61739 3.5 3.49021 3.55268 3.39645 3.64645C3.30268 3.74021 3.25 3.86739 3.25 4C3.25 4.13261 3.30268 4.25979 3.39645 4.35355C3.49021 4.44732 3.61739 4.5 3.75 4.5Z" fill="#838A95"/>
<path d="M3.75 7.5H8.25C8.38261 7.5 8.50979 7.44732 8.60355 7.35355C8.69732 7.25979 8.75 7.13261 8.75 7C8.75 6.86739 8.69732 6.74021 8.60355 6.64645C8.50979 6.55268 8.38261 6.5 8.25 6.5H3.75C3.61739 6.5 3.49021 6.55268 3.39645 6.64645C3.30268 6.74021 3.25 6.86739 3.25 7C3.25 7.13261 3.30268 7.25979 3.39645 7.35355C3.49021 7.44732 3.61739 7.5 3.75 7.5Z" fill="#838A95"/>
</svg>
