<svg width="13" height="16" viewBox="0 0 13 16" fill="none" xmlns="http://www.w3.org/2000/svg">
<path d="M12 7C12 11.2778 6.5 14.9444 6.5 14.9444C6.5 14.9444 1 11.2778 1 7C1 5.54131 1.57946 4.14236 2.61091 3.11091C3.64236 2.07946 5.04131 1.5 6.5 1.5C7.95869 1.5 9.35764 2.07946 10.3891 3.11091C11.4205 4.14236 12 5.54131 12 7Z" stroke="#838A95" stroke-width="1.2" stroke-linecap="round" stroke-linejoin="round"/>
<path d="M6.49965 8.83341C7.51218 8.83341 8.33299 8.0126 8.33299 7.00008C8.33299 5.98756 7.51218 5.16675 6.49965 5.16675C5.48713 5.16675 4.66632 5.98756 4.66632 7.00008C4.66632 8.0126 5.48713 8.83341 6.49965 8.83341Z" stroke="#838A95" stroke-width="1.2" stroke-linecap="round" stroke-linejoin="round"/>
</svg>
