<svg width="20" height="20" viewBox="0 0 20 20" fill="none" xmlns="http://www.w3.org/2000/svg">
<path d="M19.1667 10.8151H0.833333C0.373332 10.8151 0 10.4418 0 9.98177C0 9.52177 0.373332 9.14844 0.833333 9.14844H19.1667C19.6267 9.14844 20 9.52177 20 9.98177C20 10.4418 19.6267 10.8151 19.1667 10.8151Z" fill="#838A95"/>
<path d="M19.1667 4.42839H0.833333C0.373332 4.42839 0 4.05505 0 3.59505C0 3.13505 0.373332 2.76172 0.833333 2.76172H19.1667C19.6267 2.76172 20 3.13505 20 3.59505C20 4.05505 19.6267 4.42839 19.1667 4.42839Z" fill="#838A95"/>
<path d="M19.1667 17.2057H0.833333C0.373332 17.2057 0 16.8324 0 16.3724C0 15.9124 0.373332 15.5391 0.833333 15.5391H19.1667C19.6267 15.5391 20 15.9124 20 16.3724C20 16.8324 19.6267 17.2057 19.1667 17.2057Z" fill="#838A95"/>
</svg>
