<svg width="18" height="18" viewBox="0 0 18 18" fill="none" xmlns="http://www.w3.org/2000/svg">
<path d="M4.96974 4.0972C4.71015 3.83739 4.28898 3.83739 4.02938 4.0972C3.06554 5.06104 2.59181 6.40373 2.72948 7.78122C2.76383 8.12438 3.05292 8.38018 3.39052 8.38018C3.41271 8.38018 3.43507 8.37905 3.45725 8.37684C3.8228 8.34027 4.08946 8.01416 4.0529 7.64886C3.95492 6.66993 4.28922 5.71808 4.96974 5.03752C5.22955 4.77796 5.22955 4.35676 4.96974 4.0972Z" fill="#838A95"/>
<path d="M7.60345 0C3.41089 0 0 3.41089 0 7.60345C0 11.796 3.41089 15.2069 7.60345 15.2069C11.796 15.2069 15.2069 11.796 15.2069 7.60345C15.2069 3.41089 11.796 0 7.60345 0ZM7.60345 13.8768C4.14422 13.8768 1.33007 11.0627 1.33007 7.60345C1.33007 4.14422 4.14422 1.33007 7.60345 1.33007C11.0625 1.33007 13.8768 4.14422 13.8768 7.60345C13.8768 11.0627 11.0627 13.8768 7.60345 13.8768Z" fill="#838A95"/>
<path d="M17.8047 16.8633L12.9721 12.0308C12.7123 11.771 12.2916 11.771 12.0318 12.0308C11.772 12.2904 11.772 12.7116 12.0318 12.9711L16.8643 17.8037C16.9942 17.9336 17.1642 17.9985 17.3345 17.9985C17.5047 17.9985 17.6748 17.9336 17.8047 17.8037C18.0644 17.5441 18.0644 17.1229 17.8047 16.8633Z" fill="#838A95"/>
</svg>
