<svg width="12" height="12" viewBox="0 0 12 12" fill="none" xmlns="http://www.w3.org/2000/svg">
<g opacity="0.8">
<path d="M5.65092 6.94254L1.71956 11.4473C1.62394 11.5568 1.48972 11.613 1.35481 11.613C1.24188 11.613 1.12855 11.5737 1.03681 11.4936C0.835424 11.3179 0.814714 11.0123 0.990457 10.8109L5.03669 6.17463L5.65092 6.94254ZM6.96366 5.43838L11.0099 0.802106C11.1856 0.600719 11.1648 0.295105 10.9635 0.119363C10.7623 -0.0563794 10.4564 -0.0356697 10.2808 0.165718L6.34944 4.67047L6.96366 5.43838Z" fill="#838A95"/>
<path d="M11.5161 11.6129H9.00001C8.85301 11.6129 8.71394 11.5462 8.6222 11.4314L0.106051 0.786195C-0.0101753 0.640937 -0.0328205 0.441969 0.0477926 0.274259C0.128406 0.106549 0.297858 0 0.483858 0H2.99999C3.14699 0 3.28606 0.0667742 3.3778 0.181549L11.8939 10.8267C12.0102 10.972 12.0328 11.171 11.9522 11.3387C11.8716 11.5064 11.7021 11.6129 11.5161 11.6129ZM9.23256 10.6452H10.5093L2.76735 0.967744H1.4906L9.23256 10.6452Z" fill="#838A95"/>
</g>
</svg>
